<?xml version="1.0" encoding="UTF-8"?>
<svg id="Layer_1" data-name="Layer 1" xmlns="http://www.w3.org/2000/svg" viewBox="0 0 144.44 121.58">
  <defs>
    <style>
      .cls-1 {
        fill: #912c8b;
      }

      .cls-2 {
        letter-spacing: 0em;
      }

      .cls-3 {
        letter-spacing: 0em;
      }

      .cls-4 {
        fill: #149f94;
      }

      .cls-5 {
        fill: #84177c;
      }

      .cls-6 {
        fill: #2aaca3;
      }

      .cls-7 {
        fill: #49494c;
        font-family: Roboto-Regular, Roboto;
        font-size: 39.08px;
      }

      .cls-8 {
        fill: #d12a9f;
      }

      .cls-9 {
        fill: #ca1590;
      }

      .cls-10 {
        fill: #4a4a4c;
      }
    </style>
  </defs>
  <path class="cls-8" d="M90.66.14c1.7.31,3.3.46,4.89,1.22.09.07.16.17.24.24.26.25.48.76.86.97l.12-.24c2.12,1.92,3.49,4.39,4.89,6.84-.47.14-.01.75.11.99,2.17,4.03,4.15,8.26,5.99,12.45.03.07.2.15.24.24l5.37,13.92c.03.07-.03.17,0,.24,1.31,3.35,2.56,6.31,4.15,9.53,3.11,6.28,6.38,12.23,11.24,17.34l-.24.24h.49c.16.16.33.34.49.49,2.85,2.79,6.54,4.75,10.44,6.3,1.79.71,4.6.35,3.97,2.99h-26.87c-2.52-.15-5.06-.18-7.57-.49-22.17-3.32-30.59-24.02-37.61-42.5,3.83-9.44,7.61-19.1,13.68-27.36.08-.08.16-.16.24-.24.52.06.55.03.49-.49.08-.08.16-.17.24-.24l.24-.24c1.31-1.05,2.11-1.87,3.91-2.2Z"/>
  <path class="cls-6" d="M56.71,2.1c4.75,3.25,10.74,17.83,12.95,23.45-.4,1.21,1.31,3.06,1.39,4.23.09,1.35-.91,2.75-.9,4.08-6.43,16.75-13.81,33.7-32.73,38.84l-1.22.24c-2.29.52-4.74.84-7.08.98-.88.05-1.8,0-2.69,0-.75,0-1.81-.21-2.44.24-7.81-.02-15.64.01-23.45,0-.83-2.93,3.32-2.97,5.54-3.86,1.75-.71,2.48-1.29,3.99-2.24,9.67-6.12,13.69-14.63,18.32-24.67,5.04-10.95,8.51-22.57,14.1-33.41.13-.24.49-.87.07-1.03,1.5-2.62,2.95-5.19,5.37-7.08l2.87-1.16c2.09-.37,4.21.23,5.93,1.41Z"/>
  <path class="cls-5" d="M36.19,72.93c.08-.02.17.02.24,0l-1.34.73,74.37-.25c2.51.31,5.05.33,7.57.49.2.01.4.02.49.24-29.47.04-58.95.05-88.42,0v-.24c2.35-.13,4.79-.46,7.08-.98Z"/>
  <path class="cls-9" d="M129.49,64.62c2.19,1.52,4.35,3.16,6.79,4.32,1.47.7,7.83,2.44,8.08,2.79.19.27-.08,1.91.03,2.42-8.95,0-17.92-.01-26.87,0-.08-.22-.29-.23-.49-.24h26.87c.63-2.64-2.18-2.28-3.97-2.99-3.9-1.55-7.58-3.5-10.44-6.3Z"/>
  <path class="cls-4" d="M42.54,8.93c.42.16.06.79-.07,1.03-5.59,10.84-9.06,22.46-14.1,33.41,4.7-11.26,8.1-23.84,14.17-34.44Z"/>
  <path class="cls-4" d="M.53,74.15h-.24l-.24-.73c-.05-.45-.11-1.57.23-1.84.19-.15,3.89-.93,4.64-1.22,1.76-.66,3.4-1.6,5.14-2.31-1.5.95-2.24,1.54-3.99,2.24-2.22.9-6.37.93-5.54,3.86Z"/>
  <path class="cls-4" d="M56.71,2.1c-1.71-1.17-3.84-1.78-5.93-1.41l-2.87,1.16c3.07-2.41,5.81-2.37,8.79.24Z"/>
  <path class="cls-9" d="M113.37,36.78l-5.37-13.92c1.98,4.55,3.56,9.3,5.37,13.92Z"/>
  <path class="cls-9" d="M85.53,3.56c-6.07,8.25-9.85,17.92-13.68,27.36h-.24v-.98c4.28-8.41,7.39-19.45,13.92-26.38Z"/>
  <path class="cls-9" d="M95.54,1.36c-1.59-.76-3.18-.92-4.89-1.22,2.01-.37,3.26-.02,4.89,1.22Z"/>
  <path class="cls-4" d="M71.61,29.94v.98c-.67.74-1.11,1.99-1.47,2.93,0-1.33.99-2.73.9-4.08-.08-1.16-1.79-3.02-1.39-4.23.58,1.47,1.19,3.01,1.95,4.4Z"/>
  <path class="cls-9" d="M117.52,46.55c-1.59-3.22-2.84-6.18-4.15-9.53l4.15,9.53Z"/>
  <path class="cls-9" d="M107.75,22.61c-1.84-4.18-3.82-8.42-5.99-12.45-.13-.24-.59-.84-.11-.99,2.42,4.25,4.44,8.83,6.11,13.43Z"/>
  <path class="cls-10" d="M29.11,73.91v.24c-.89,0-1.79,0-2.69,0v-.24c.89,0,1.8.05,2.69,0Z"/>
  <path class="cls-4" d="M26.42,73.91v.24c-.81,0-1.63,0-2.44,0,.63-.45,1.69-.24,2.44-.24Z"/>
  <path class="cls-9" d="M86.26,2.83c.06.52.03.55-.49.49.17-.17.31-.32.49-.49Z"/>
  <path class="cls-9" d="M95.79,1.61c.48-.03.64.43.98.73l-.12.24c-.38-.21-.59-.72-.86-.97Z"/>
  <path class="cls-6" d="M.28,74.15c-.37-.08-.22-.48-.24-.73l.24.73Z"/>
  <path class="cls-9" d="M129,64.14h-.49s.24-.24.24-.24c.08.08.16.16.24.24Z"/>
  <path class="cls-9" d="M86.5,2.58c.09-.07.16-.17.24-.24l-.24.24Z"/>
  <path class="cls-1" d="M71.85,30.92c7.02,18.48,15.45,39.18,37.61,42.5l-74.37.25,1.34-.73c.35-.08.63-.15.98-.24,18.92-5.13,26.3-22.08,32.73-38.84.36-.94.79-2.19,1.47-2.93h.24Z"/>
  <path class="cls-9" d="M37.41,72.68c-.34.09-.63.16-.98.24-.08.02-.17-.02-.24,0l1.22-.24Z"/>
  <text class="cls-7" transform="translate(5.76 110.99)"><tspan x="0" y="0">sum</tspan><tspan class="cls-3" x="75.95" y="0">v</tspan><tspan class="cls-2" x="94.59" y="0">ar</tspan></text>
</svg>